<?xml version="1.0" standalone="no"?><!DOCTYPE svg PUBLIC "-//W3C//DTD SVG 1.1//EN" "http://www.w3.org/Graphics/SVG/1.1/DTD/svg11.dtd"><svg class="icon" width="16px" height="16.00px" viewBox="0 0 1024 1024" version="1.1" xmlns="http://www.w3.org/2000/svg"><path d="M587.754 563.094h268.512c15.519 0 28.206 12.679 28.206 28.197v0.017c0 15.52-12.688 28.198-28.206 28.198H587.754c-15.519 0-28.198-12.679-28.198-28.198v-0.017c0-15.519 12.679-28.197 28.198-28.197z m30.64-433.773h207.24c20.044 0 38.289 8.205 51.473 21.382 13.191 13.202 21.395 31.433 21.395 51.487v207.23c0 19.944-8.203 38.141-21.395 51.383l-0.049 0.055-0.049 0.055c-13.24 13.184-31.437 21.389-51.375 21.389h-207.24c-20.061 0-38.298-8.205-51.489-21.389-13.175-13.184-21.387-31.429-21.387-51.493V202.19c0-19.981 8.212-38.181 21.387-51.377l0.114-0.11c13.183-13.177 31.387-21.382 51.375-21.382z m207.24 54.425h-207.24a18.572 18.572 0 0 0-13.062 5.381 18.521 18.521 0 0 0-5.388 13.063v207.23c0 5.062 2.084 9.676 5.437 13.008 3.345 3.355 7.959 5.448 13.013 5.448h207.24c5.103 0 9.733-2.051 13.005-5.322l0.113-0.126c3.28-3.271 5.322-7.886 5.322-13.008V202.19c0-5.05-2.091-9.664-5.436-13.009-3.344-3.342-7.958-5.435-13.004-5.435zM193.963 548.759h207.218c19.393 0 37.021 7.926 49.782 20.683l-0.049 0.049c12.789 12.809 20.729 30.419 20.729 49.727v207.225c0 19.312-7.947 36.926-20.729 49.727l0.049 0.049c-12.76 12.761-30.389 20.683-49.782 20.683H193.963c-19.395 0-37.021-7.922-49.782-20.683l0.049-0.049c-12.785-12.801-20.729-30.415-20.729-49.727V619.217c0-19.308 7.938-36.918 20.729-49.727l-0.049-0.049c12.761-12.756 30.387-20.682 49.782-20.682z m0-417.019h207.218c19.393 0 37.021 7.922 49.782 20.683 12.758 12.758 20.681 30.387 20.681 49.78v207.218c0 19.395-7.922 37.021-20.681 49.78-12.76 12.76-30.389 20.683-49.782 20.683H193.963c-19.395 0-37.021-7.922-49.782-20.683-12.758-12.758-20.681-30.385-20.681-49.78V202.203c0-19.393 7.922-37.021 20.681-49.78l0.049 0.047c12.801-12.783 30.418-20.73 49.733-20.73z m207.219 49.587H193.963c-5.788 0-11.007 2.321-14.732 6.046v0.098c-3.784 3.786-6.144 9.011-6.144 14.732v207.218c0 5.721 2.36 10.945 6.144 14.731 3.786 3.786 9.011 6.145 14.732 6.145h207.218c5.721 0 10.945-2.358 14.731-6.145 3.784-3.786 6.145-9.011 6.145-14.731V202.203c0-5.721-2.36-10.946-6.145-14.732-3.785-3.786-9.01-6.144-14.73-6.144z m0 417.02H193.963c-5.721 0-10.946 2.36-14.732 6.145h-0.095c-3.726 3.723-6.049 8.943-6.049 14.726v207.225c0 5.782 2.323 11.002 6.049 14.726h0.095c3.786 3.784 9.011 6.144 14.732 6.144h207.218c5.721 0 10.945-2.359 14.731-6.144h0.096c3.725-3.724 6.049-8.943 6.049-14.726V619.217c0-5.782-2.324-11.003-6.049-14.726h-0.096c-3.785-3.784-9.01-6.144-14.73-6.144z m144.344 263.49V733.014c0-15.52 12.679-28.206 28.198-28.206h0.008c15.519 0 28.206 12.687 28.206 28.206v128.823c0 15.516-12.688 28.202-28.206 28.202h-0.008c-15.519 0-28.198-12.686-28.198-28.202z m296.555-26.24V689.98c0-15.516 12.679-28.202 28.197-28.202h0.017c15.511 0 28.206 12.687 28.206 28.202v171.856c0 4.28-0.977 8.346-2.702 11.991-4.061 10.608-14.354 18.188-26.351 18.188H661.614c-15.52 0-28.206-12.687-28.206-28.202v-0.012c0-15.52 12.687-28.206 28.206-28.206h180.467v0.002zM678.517 673.969h82.348c15.519 0 28.206 12.688 28.206 28.202v0.012c0 15.52-12.688 28.206-28.206 28.206h-82.348c-15.511 0-28.198-12.687-28.198-28.206v-0.012c-0.001-15.515 12.687-28.202 28.198-28.202z" fill="#999999" /></svg>